<svg width="15" height="13" viewBox="0 0 15 13" fill="none" xmlns="http://www.w3.org/2000/svg">
<path d="M1.59088 10.9317C1.59088 10.1481 1.90216 9.39662 2.45625 8.84254C3.01033 8.28845 3.76183 7.97717 4.54543 7.97717H10.4545C11.2381 7.97717 11.9896 8.28845 12.5437 8.84254C13.0978 9.39662 13.4091 10.1481 13.4091 10.9317C13.4091 11.3235 13.2534 11.6993 12.9764 11.9763C12.6993 12.2533 12.3236 12.409 11.9318 12.409H3.06815C2.67636 12.409 2.30061 12.2533 2.02356 11.9763C1.74652 11.6993 1.59088 11.3235 1.59088 10.9317Z" stroke="#252525" stroke-linejoin="round"/>
<path d="M7.49997 5.02264C8.72378 5.02264 9.71588 4.03054 9.71588 2.80673C9.71588 1.58292 8.72378 0.59082 7.49997 0.59082C6.27615 0.59082 5.28406 1.58292 5.28406 2.80673C5.28406 4.03054 6.27615 5.02264 7.49997 5.02264Z" stroke="#252525"/>
</svg>
